<svg width="47" height="47" viewBox="0 0 47 47" fill="none" xmlns="http://www.w3.org/2000/svg">
<path fill-rule="evenodd" clip-rule="evenodd" d="M24.3975 38.8737C24.3556 38.797 24.3279 38.7712 24.2789 38.701C23.6714 37.8281 23.7081 37.0537 23.7081 36.0777C23.7081 34.9966 23.6109 33.9594 24.1694 33.0388C24.3189 32.7927 24.5063 32.553 24.6745 32.381C24.7924 32.2599 25.1499 31.9648 25.3297 31.8804C25.0791 30.5681 25.3561 29.5773 26.2258 28.6876L27.6651 27.249C27.7875 27.1317 27.8989 27.0229 28.0432 26.9133C28.1753 26.8135 28.3119 26.7246 28.4775 26.6337C29.2087 26.2317 29.9676 26.1647 30.8682 26.3432C30.9417 26.1763 31.1575 25.9296 31.2625 25.8065L31.6194 25.4702C31.6445 25.4503 31.66 25.4445 31.689 25.418C31.7644 25.3498 31.7154 25.4226 31.7508 25.3349L31.1691 24.893C29.7988 23.8693 27.7005 23.0118 25.9759 22.8649C25.9102 23.1464 25.5139 23.79 25.3213 24.0497C25.0578 24.4047 24.9844 24.4414 24.7389 24.712C24.6539 24.8054 24.5231 24.9007 24.4091 24.9941C23.7075 25.5675 22.7005 25.9141 21.7761 26.0765C21.0236 26.2085 20.2408 26.2362 19.4529 26.2375C17.6452 26.2401 15.8465 26.0314 14.5135 24.9986C14.0265 24.6211 13.6702 24.2114 13.3416 23.6805C13.2295 23.4988 12.9828 23.0666 12.9248 22.8501C11.2859 23.0434 9.05293 23.8802 7.73416 24.8911C7.26064 25.2538 6.96558 25.4908 6.56744 25.8877C6.50108 25.9541 6.45148 26.0082 6.38963 26.0777C6.09392 26.407 5.83107 26.6943 5.57015 27.0737C4.77194 28.2321 4.19148 29.4555 3.82039 31.1003C3.43965 32.7888 3.37071 34.5701 4.08325 36.0622C4.66822 37.2882 5.78275 38.1657 7.37145 38.5477C8.27082 38.7642 9.07354 38.7506 10.0373 38.7854C10.9728 38.8196 11.9237 38.8176 12.861 38.8479C14.7609 38.9085 16.7046 38.9059 18.616 38.9059C20.0611 38.9059 21.5177 38.9136 22.9627 38.8911C23.4408 38.8833 23.922 38.8756 24.3981 38.8756L24.3975 38.8737Z" fill="white"/>
<path fill-rule="evenodd" clip-rule="evenodd" d="M34.51 32.3533C35.419 32.2728 36.4492 32.6258 37.096 33.2308C37.6294 33.7294 38.1558 34.4909 38.2415 35.5494C38.4044 37.5698 36.8531 39.1559 35.0421 39.2989C33.0282 39.458 31.4357 37.9151 31.2952 36.0938C31.2534 35.5546 31.341 35.0231 31.5188 34.5734C31.6663 34.1991 31.9047 33.7829 32.1766 33.4956C32.6997 32.9422 33.4116 32.4506 34.51 32.3533ZM31.3429 29.5477C31.1767 29.3544 30.9531 29.1573 30.767 28.9678C30.5428 28.7391 30.3289 28.5974 29.943 28.6328C29.5629 28.6676 29.396 28.8925 29.2195 29.0703L28.0566 30.2338C27.873 30.418 27.6611 30.5656 27.6173 30.956C27.5348 31.6975 28.2673 31.9552 28.5153 32.3643C28.4793 32.4661 28.3955 32.5936 28.3433 32.7038C28.1191 33.178 28.0914 33.3468 27.9175 33.7868C27.6082 33.7945 27.2649 33.7694 26.9621 33.7926C26.3958 33.837 26.0898 34.2693 26.0904 34.8324C26.0904 35.1455 26.0904 35.4586 26.0904 35.7717C26.0904 36.3341 25.9906 37.1162 26.3198 37.4557C26.7604 37.9106 27.1676 37.7598 27.8956 37.7778C27.9684 38.0407 28.0663 38.31 28.1655 38.5484C28.2177 38.6733 28.2667 38.7822 28.3221 38.9027C28.3749 39.0187 28.4503 39.1333 28.4915 39.2467C28.266 39.4786 27.7783 39.9032 27.683 40.1448C27.4588 40.7137 27.7609 41.048 28.0618 41.3457L29.2047 42.4885C29.3767 42.6586 29.5442 42.8802 29.903 42.9305C30.6665 43.0374 30.9519 42.2772 31.3094 42.0775C31.5413 42.1922 31.7533 42.3075 32.0123 42.4151C32.2597 42.5182 32.5406 42.589 32.7744 42.6889C32.7686 43.3898 32.6739 43.8621 33.1178 44.2486C33.4753 44.5598 34.2259 44.4599 34.7787 44.4599C35.0918 44.4599 35.4049 44.4593 35.718 44.4599C36.0253 44.4606 36.2559 44.3955 36.4305 44.2383C36.8538 43.8569 36.7784 43.3802 36.7629 42.687C37.0271 42.591 37.2777 42.5175 37.5399 42.4087L38.2524 42.0749C38.3059 42.1568 38.4534 42.2856 38.5326 42.3648C38.7433 42.5755 38.8947 42.7727 39.1614 42.8783C39.7284 43.1038 40.084 42.7385 40.3539 42.4673L41.4865 41.3347C41.6617 41.1588 41.8737 40.9978 41.9194 40.6267C41.9413 40.4489 41.9104 40.2775 41.8492 40.1293C41.7506 39.8916 41.2758 39.4864 41.0471 39.2448C41.0832 39.1404 41.1702 39.0038 41.2236 38.8885C41.395 38.5174 41.5258 38.1844 41.6437 37.7772C42.3717 37.7553 42.8027 37.9086 43.2272 37.4422C43.5494 37.0885 43.4482 36.3283 43.4482 35.7704C43.4482 35.4502 43.4495 35.13 43.4482 34.8105C43.4469 34.4961 43.3599 34.2751 43.2092 34.0954C42.8774 33.6985 42.2448 33.7848 41.6186 33.7861C41.5284 33.5329 41.453 33.2836 41.3473 33.0395C41.2443 32.8011 41.1231 32.584 41.022 32.3624C41.1483 32.1446 41.703 31.7729 41.8498 31.4327C41.9117 31.289 41.9426 31.1157 41.9194 30.9347C41.8717 30.5572 41.6508 30.4006 41.471 30.2215L40.3075 29.0587C40.1027 28.8545 39.9435 28.6541 39.575 28.6296C39.1724 28.6026 38.9843 28.7527 38.7613 28.9775C38.5765 29.1643 38.3626 29.3557 38.1944 29.5464C38.0353 29.5006 37.7087 29.3119 37.507 29.2268L36.7694 28.9588C36.7294 28.725 36.7771 28.2669 36.7616 27.9944C36.7294 27.421 36.301 27.1066 35.7173 27.1079H33.7988C33.2189 27.106 32.7963 27.4481 32.7738 28.015C32.7622 28.3184 32.7963 28.6708 32.7686 28.9653C32.5103 29.0419 32.2661 29.1302 32.029 29.2262C31.8151 29.3132 31.5162 29.4948 31.3416 29.5464L31.3429 29.5477Z" fill="white"/>
<path fill-rule="evenodd" clip-rule="evenodd" d="M13.2887 17.1427L14.5746 17.4449C14.7794 17.4938 14.7923 17.5267 15.0075 17.4694C15.5229 17.3321 16.479 17.3895 17.0646 17.3895C17.7578 17.3895 18.3975 17.3276 19.0082 17.5628C19.5533 17.7728 19.936 18.1194 20.2098 18.5034C20.5274 18.9492 20.682 19.4717 20.682 20.1591C20.6813 20.9077 20.6214 21.3632 20.2755 21.9011C20.0036 22.3237 19.6338 22.6619 19.1223 22.8907C18.4626 23.1857 17.9614 23.0962 17.2031 23.1149C17.2475 23.1606 17.2675 23.1651 17.3364 23.1934C18.2068 23.56 18.8704 23.7539 19.9031 23.6882C20.8572 23.6277 21.696 23.3036 22.3731 22.8752C22.9568 22.506 23.7073 21.8934 24.1802 21.416C24.7607 20.831 25.3315 20.1481 25.7451 19.2868C25.8179 19.1354 25.7863 19.1534 25.747 18.9878C25.6265 18.4789 25.6723 17.1872 25.6723 16.6074C25.6723 15.5122 25.6723 14.4169 25.6723 13.3217C25.6723 12.7574 25.662 12.3586 25.8456 11.858C26.0054 11.4232 26.254 11.1513 26.0962 10.5753C25.91 9.89695 25.077 8.69737 24.6686 8.31018C24.1158 7.78577 23.8317 7.46944 23.0799 7.04167C22.3628 6.63322 21.6471 6.31368 20.6904 6.14424C17.9581 5.65977 15.3026 6.87996 13.7654 8.85907C13.5315 9.15993 13.3331 9.48528 13.1276 9.85507C12.9324 10.2068 12.7018 10.6398 12.7971 11.141C12.8693 11.5204 13.1018 11.7272 13.2075 12.3612C13.2932 12.8753 13.2075 13.428 13.2745 13.9486C13.3415 14.4685 13.3267 14.9768 13.3048 15.5057C13.2822 16.0417 13.2874 16.6003 13.2887 17.1421V17.1427Z" fill="white"/>
<path fill-rule="evenodd" clip-rule="evenodd" d="M8.88747 11.6531C8.46485 11.6795 8.25225 11.8476 8.04545 12.0589C7.82318 12.287 7.75232 12.6156 7.75296 13.0163V18.0162C7.75296 18.4749 7.74523 18.7346 7.97522 19.0444C8.46163 19.699 9.1413 19.5366 10.0033 19.5366C10.558 19.5366 10.5097 19.5611 11.0611 19.7138C11.7054 19.8923 12.378 20.0965 13.0319 20.2543L14.9176 20.6937C15.0999 20.7523 14.933 20.8767 15.2822 21.1047C15.4368 21.2059 15.5908 21.2117 15.7995 21.211C16.1796 21.2104 18.0473 21.242 18.2689 21.1808C18.5807 21.0944 18.7746 20.8329 18.7746 20.4463C18.7746 20.0147 18.8017 19.6848 18.5247 19.4561C18.2554 19.2339 17.8231 19.2925 17.4121 19.2925C17.1827 19.2925 15.7119 19.279 15.5547 19.3009C15.2899 19.3376 15.1952 19.4838 15.1315 19.5115C15.0599 19.5431 12.5326 18.9195 12.0984 18.8196C11.4992 18.6824 11.5804 18.6508 11.5804 18.1393V13.1393C11.5804 12.6974 11.5707 12.4216 11.3446 12.1253C11.1842 11.9153 10.913 11.7027 10.538 11.666C10.5509 11.2627 10.8279 10.4239 10.9568 10.0521C11.1236 9.57152 11.3736 9.06322 11.6145 8.64897C14.9756 2.87721 23.5337 2.43011 27.2761 8.62191C27.6955 9.31576 28.3391 10.8742 28.3494 11.6692C27.9879 11.7117 27.6645 11.9713 27.5273 12.1936C27.3031 12.5556 27.3398 12.8894 27.3398 13.3642C27.3398 14.2758 27.3398 15.1874 27.3398 16.099C27.3398 16.6111 27.2812 18.3867 27.4043 18.7384C27.7328 19.6771 28.6257 19.5373 29.3499 19.5373C29.8008 19.5373 30.1958 19.5901 30.5585 19.3898C31.3451 18.9549 31.166 18.1309 31.166 17.2618V13.1799C31.166 12.6942 31.1563 12.3791 30.8993 12.0789C30.6983 11.8444 30.3961 11.6498 29.9561 11.6492C29.8466 10.9637 29.7229 10.277 29.5006 9.66172C29.2739 9.03487 29.0393 8.52656 28.7346 7.9796C28.39 7.36113 28.1471 7.05512 27.7438 6.52039C27.1195 5.6919 26.0114 4.74486 25.1507 4.19404C22.1473 2.27291 18.7134 2.02101 15.366 3.37972C14.4556 3.74951 13.4236 4.34737 12.6756 4.9755C11.1397 6.26592 10.0793 7.72191 9.39578 9.69522C9.1806 10.3169 9.04982 11.0017 8.88683 11.6531H8.88747Z" fill="white"/>
</svg>
