<svg width="49" height="49" viewBox="0 0 49 49" fill="none" xmlns="http://www.w3.org/2000/svg">
<path fill-rule="evenodd" clip-rule="evenodd" d="M18.1474 33.2981C18.9715 33.026 30.2043 33.0435 30.8578 33.3303C31.1319 35.8315 30.6953 35.4071 29.09 35.399H19.7997C17.9573 35.4111 17.8116 35.53 18.1467 33.2974L18.1474 33.2981ZM21.3707 11.1361V9.09493H20.6433V8.67985H22.5918V9.09493H21.8677V11.1361H21.37H21.3707ZM24.872 11.1361H24.336L24.1238 10.5773H23.1385L22.9343 11.1361H22.4084L23.3621 8.67985H23.8874L24.8714 11.1361H24.872ZM23.9626 10.1615L23.6214 9.2521L23.2896 10.1615H23.9626ZM24.8875 11.1361L25.7351 9.85525L24.9661 8.67985H25.545L26.0286 9.41128L26.5122 8.67985H27.0925L26.3215 9.85592L27.1677 11.1361H26.572L26.0273 10.3039L25.4826 11.1361H24.8861H24.8875ZM27.4069 11.1361V8.67985H27.9046V11.1361H27.4069ZM34.969 27.953C34.7561 26.3135 37.2654 25.6351 38.7934 25.3577C41.0831 24.9413 42.4647 24.2609 43.0054 26.8992C43.5897 29.7517 42.1645 29.9304 39.6592 29.8196C38.0244 29.7477 35.188 29.6389 34.969 27.953ZM13.9529 28.2391C13.4485 29.6483 10.8102 29.7799 9.08475 29.829C6.45186 29.9035 5.30131 29.4381 6.07506 26.5197C6.6735 24.2636 8.31839 24.9971 10.4845 25.4088C11.8513 25.6687 14.5802 26.4855 13.9529 28.2391ZM10.1634 20.3049C10.907 18.7486 13.2336 14.6677 14.2424 13.8214C15.2324 12.9912 22.5044 13.0846 24.373 13.0819C26.2026 13.0792 33.4974 12.9563 34.6037 13.722C35.5507 14.3775 38.5107 19.329 38.8002 20.3371C31.2635 20.2767 25.1568 19.8663 17.2272 20.0631C15.2949 20.1108 11.8654 20.4849 10.1634 20.3049ZM18.6028 11.1885C13.9536 11.623 13.2665 10.8218 10.3233 15.9082C9.83163 16.7579 9.17945 18.1865 8.65153 18.6472C8.32779 17.7553 8.63944 17.6156 8.07458 16.8311C6.75679 16.6511 3.11574 16.6121 2.50319 17.7707C2.13243 21.2002 4.98563 20.1061 6.1711 21.2358C5.56057 21.9121 5.1166 21.9545 4.58331 22.7416C3.59597 24.1998 3.53754 29.4904 3.64702 31.2455C3.76926 33.2101 3.98352 35.082 4.02516 37.1023C4.12322 41.8617 3.00626 41.3445 9.65163 41.3378C12.1153 41.3378 11.3845 39.8554 11.4758 37.6161L37.5126 37.6141C37.5502 38.7741 37.1499 40.8125 38.2393 41.237C38.7961 41.454 41.5459 41.3378 42.3801 41.3398C44.1136 41.3445 44.9465 41.5984 44.9579 39.6835C44.966 38.271 44.9747 36.9075 45.0291 35.5206C45.1413 32.6573 45.5241 30.2407 45.2951 27.3109C44.8269 21.3244 44.3104 23.0721 42.8288 21.2365C43.5723 20.5299 44.9216 20.7676 45.8028 20.0826C46.5148 19.5291 46.95 17.8365 45.8962 17.2851C44.9781 16.8042 43.5273 16.7122 42.3761 16.7155C39.991 16.7223 40.936 17.179 40.2852 18.5881C40.2744 18.611 40.2516 18.6553 40.2294 18.6855C39.7371 17.5329 37.7537 14.3795 36.9612 13.364C35.2303 11.1442 34.024 11.4155 30.391 11.2046C28.9181 7.3399 29.8154 7.5743 25.3106 7.68177C23.9257 7.71468 22.5642 7.67438 21.186 7.68244C19.523 7.69184 19.8151 8.06528 18.6021 11.1905L18.6028 11.1885Z" fill="#BB0025"/>
</svg>
