<svg width="45" height="45" viewBox="0 0 45 45" fill="none" xmlns="http://www.w3.org/2000/svg">
<path fill-rule="evenodd" clip-rule="evenodd" d="M13.2873 21.6728C11.3628 22.1083 9.49753 23.5727 8.07944 24.6836C6.91981 25.5922 5.39501 27.4963 4.54749 29.2018C3.59449 31.1208 2.93572 33.0496 2.81235 35.5132C2.65568 38.6541 4.03799 39.0927 6.22711 40.1536C12.3047 43.0983 19.7862 44.2043 26.765 43.4734C28.4434 43.2976 32.1394 42.7288 33.4557 42.1429C35.3673 41.7074 37.5928 40.7174 39.2391 39.9439C41.5189 38.8731 42.4336 38.1125 42.148 34.9433C41.9371 32.5956 41.2253 30.6415 40.2901 28.8731C39.8473 28.0354 39.2132 27.1225 38.6858 26.5014C37.8759 25.5484 37.5891 25.2726 36.7045 24.5059C34.9651 22.9984 32.61 21.7154 30.057 21.167C29.1564 20.974 29.3106 20.9197 28.6704 21.3256C27.8642 21.8363 26.9932 22.2761 25.9563 22.5901C23.6463 23.2883 21.3492 23.284 19.0374 22.5931C15.6306 21.5748 16.8254 20.7192 14.706 21.2256C14.2742 21.3286 13.6155 21.4878 13.2867 21.6735L13.2873 21.6728ZM15.197 4.52875C14.4124 4.95189 13.439 6.72157 13.1016 7.50617C11.3474 11.5828 12.4429 16.0332 15.2297 18.8367C17.9844 21.6081 22.4712 22.7634 26.522 21.0246C27.5101 20.6002 29.2144 19.5565 29.6005 18.9335C30.197 18.6393 31.2906 16.898 31.7594 15.9808C32.3608 14.8045 32.7248 13.2581 32.7488 11.7666C32.7741 10.2122 32.4429 8.77807 31.8958 7.50617C31.3289 6.18801 30.7324 5.35653 29.7597 4.40476C26.6028 1.31446 22.0099 0.390454 18.1824 2.30694C17.2042 2.7967 15.5159 3.81816 15.197 4.52936V4.52875Z" fill="white"/>
</svg>
